<svg xmlns="http://www.w3.org/2000/svg" xml:space="preserve" id="Layer14" x="0" y="0" style="opacity:1;z-index:1" viewBox="0 0 1920 1920">
  <style>
    .stn0{fill:#d7d6d6}.stn5{fill:#aeb0b4}.stn6{fill:#909294}.stn13{fill:#84878a}.stn14{fill:#4e4e50}.stn17{fill:#f9f9f9}.stn22{fill:#444041}.stn28{fill:#b9b9ba}.stn32{fill:#bebfc1}.stn33{fill:#7d7f80}.stn34{fill:#575558}.stn35{fill:#b6b8ba}.stn46{fill:#babbbe}.stn53{fill:#cacbcd}.stn62{fill:#babcbf}
  </style>
  <g id="Group_2">
    <path d="M1180.3 1180.2c-3.5 1.5-6.9 3.2-10.3 4.8 2.1 1.9 4.7 1.2 7.2 1.2 3 .1 6 .1 8.8 1.3 4.8 2 5.5 4.3 2.4 8.3-.2.2-.2.6-.1 1 .1.8.5 1.3 1.2 1.8 4.2-.3 7.3 1.1 10 3.4-4.4-8.6-10.1-16.4-17.3-23.8.2.9-.5 1.4-1.9 2zm149.8-59.1c-2-1.3-4.1-1-6.3-.9-12.2.9-23.8 4.5-35.1 8.8-1.4.5-2.5.7-3.4.5 4.9 14.8 12.6 28.1 20.1 41.6.5-.9 1.5-1.6 3-1.9 13.2-2.5 25.1-8.9 37.9-12.3 2.9-.8 5.9-1.4 7.3-4.5.3-11.8-11.2-27-23.5-31.3z" class="stn0"/>
    <path fill="#b8b9b9" d="M1315.1 1203.1c-2-.1-2.1-1.8-2.6-3.2-3-8.6-5.9-17.2-8.9-25.9-1.1-3.1.5-5.2 3.1-5.7 13.6-2.5 25.9-9.1 39.2-12.5 2.6-.7 5.7-1 7.2-3.9 3.3 1.3 2.9 4.5 3.2 7.1.6 7.1.3 14.2-2.3 20.9-3.5 5.3-8.6 8.8-13.9 11.8-8 4.6-16.3 8.7-25 11.4z"/>
    <path fill="#bcbdbf" d="M1170 1185h9.9c4.8 0 8.9 1.5 12.1 5.4 2.1 2.6 3.5 4.5-1.4 4.7-1 .1-1.3.9-1.5 1.7-4.8 1.4-9.7 1.9-14.6 2.7-3 .5-4.6 2.1-4 5.1 1.5 9 4.9 17 12.9 22.2 4.8 3.1 8.3 1.8 9.7-3.8 1.7-6.5.4-12.9-2-19.1-.7-1.9-2.5-3.7-1-6 6.8-1.7 10.3 2.5 14.2 7.1 4.8 5.7 8.7 12 13.4 17.6 3.1 3.6 2.4 5-1.7 6.2-6.6.8-13.2 1.1-19.7 2.3-15.2 2.8-19.3-1.5-26.3-13.7-2.5-4.4-4.2-9.4-3.9-14.8.1-2.7-.8-3.8-3.6-4-2-.1-4.5-.4-5.2-3-.7-2.6 1.4-3.9 2.9-5.3 2.6-2.6 6.3-3.8 9.8-5.3z"/>
    <path fill="#7e8185" d="M1353.9 1179.9c-1.7-1.6.1-3 .3-4.4 1.2-8 1.9-15.9-1.2-23.6-3-13.7-10.7-23.9-23-30.8 7.2.4 12.3 4.4 17 9.3 12.6 13.1 15.7 35.1 6.9 49.5z"/>
    <path fill="#101317" d="M1190 1198c2.8 6.6 5.6 13.1 5.1 20.4-.3 4.4-.6 9.4-5.1 11.1-4.7 1.8-8.6-1.6-11.7-4.9-5.7-6.2-8.8-13.5-9.5-21.9-.1-1.2-.7-3.4.8-3.6 6.5-.9 12.7-3.6 19.4-2.4.3.5.6.9 1 1.3z"/>
  </g>
  <g id="Group_1">
    <path d="M1338 1265.2c-2.2-7.7-8-13.6-10.4-21.4-3.7-12.2-8.4-24.1-12.6-36.1-.5-1.5-1.4-3.1 0-4.6-3.4-9-6.1-18.3-9.4-27.3-.7-1.9-.8-3.5-.2-4.7-7.5-13.4-15.2-26.8-20.1-41.6-1.6-.3-2.5-1.7-3.4-3.7l-6-14.1c-9-21.4-17.7-42.9-27-64.1-2.1-4.9-1.3-6.5 3.2-8.8 18.8-9.6 38.3-17.7 57.8-25.8 1.1-2 3.1-3.2 3.1-6-.1-6.3-4.9-12.9-11-15.2-5.6-2.1-11.3-1.9-17.1-1.9-4.3-1.9-8.5-.2-12.7.3-12.2 1.7-23.9 5.7-35.7 9.1-3.1.9-5.6 1.2-7.2-2.7-4.5-11.1-9.8-21.8-14.2-32.9-2.2-4-2.4-8.2-1.8-12.5.7-6.3 2.2-7.9 8.5-9 3.9-.7 8-.8 11.1-3.7.7-1 .5-2 .2-3-.7-2.1-1.8-3.9-3.2-5.6-4-3.7-8.8-5.4-14.1-5.2-7.3.2-14.5-.8-21.8 0-4.5.2-8.7 1.8-13.1 2.5-13.3 3.8-26.8 6.8-40.2 10.1-42.4 10.5-84.7 21-126.8 32.7-9.9 2.8-20.1 4.5-29.9 8.2-2.4 1.8-4.8 3.6-7.6 4.6-2 .7-4.4 1.4-4.8 3.9-.5 2.6 2.9 2.1 3.9 3.6-1.3 1.6-3 2-4.5 2.6-14.6 6.2-29.7 10.8-44.4 16.5-9 3.4-17.7 7.7-26.9 10.6-11.4 4.6-22.5 9.7-33.5 15.1-1.5.7-3 1.4-3.5 3.3 1.6 4.2 4.8 2.2 7.2 1.5 10.4-3 20.6-6.5 31-9.5 21.8-6.5 43.7-13.1 66.3-16.4 9.9-1.4 19.2-.8 27.3 7 5 4.8 12.2 8.8 19 9.1 6.7.3 11.7 3.1 17.1 5.7 1.1.5 2.8.9 2.6 2.6-.2 1.3-1.8 1.3-2.8 1.8-3.9 1.8-8.2 2.7-12.1 4.6-1.2.6-2.6 1.5-2.3 2.9.3 1.7 1.9 2.1 3.5 2.3 1.2.1 2.3-.2 3.5-.3 6.6-.8 13.1-2.3 19.6-3.7 3-.6 5.5-.2 8.2 1.1 6.6 3.1 12.5 7.6 19.1 10.8 1.5.7 3 1.5 4.3 2.5 3.6 2.9 3.4 5.2-.4 7.7-2.6 1.7-5.8 2.8-6.7 6.3-1.5 2.2-2.8 4.5-4.4 6.6-2 2.8-4.2 6.2-1.7 9 2 2.3 5.7 2.6 9.3 1.8 9.8-2 19.2-5.4 28.6-8.7 3.4-1.2 5.7-.7 7.8 2.1 5.3 6.8 10.7 13.6 16.3 20.1 2.4 2.8 2.2 3.8-1.2 5-4.3 1.6-8.6 3.5-12.7 5.8-2 1.1-4.6 2.9-3.7 5.9.9 3.1 3.9 3.2 6.6 3.3 6.9.1 13.5-1.9 20-3.5 2.7-.7 4.5-.1 6.1 1.9 14.4 17.8 28.8 35.6 43.4 53.3.5.6.8 1.1.9 1.5 7.2 7.4 12.9 15.1 17.3 23.8 1.8 1.5 3.4 3.4 5.1 5.4 4 4.7 7.1 10.1 11.1 14.7 2.1 2.4 2.1 4.5.3 6.8 3.5-.3 5.8.8 7.8 4 3.7 5.9 8.1 11.4 11.8 17.2 7.4 11.4 15.8 22.1 22.6 33.9 3.2 5.5 6.2 11.4 10.8 16 3-1.6 2.9-4.6 3.3-7.3 1.6-11.3 3.5-22.6 5.9-33.7.5-2.5 1.1-5 3.6-6.3 6.8-3.5 13.7-5 21-1.4 5.9 2.9 10.6 7.3 15.7 11.4 6.3 5.1 12.2 10.8 20.7 12.3 1.8-3.8-.5-7-1.4-10.1z" class="stn0"/>
    <path id="4" d="M148 898.1c-6.6-15.8-13.3-31.7-19.9-47.5-6.2-15-12.4-29.9-17.8-45.2-.9-2.6-1.8-5.3-2.1-8.1-.7-5.7 1.2-9 7-10.2 10.7-2.2 21.2-5.5 32.5-5.6 4.2 0 8.8-3.1 13.5-3.9 16.6-3.1 33.1-6.3 49.7-9.3 4.8-.9 9.3.7 13.2 3.5 9.4 6.7 18.2 14.3 27.1 21.8 13 11.1 26 22.1 39 33.2 12.5 10.7 24.8 21.5 37.3 32.1 12.5 10.6 25.1 21.1 37.5 31.7 10.2 8.7 20.3 17.6 30.5 26.3 13.2 11.3 26.5 22.5 39.7 33.8 13.1 11.2 26.1 22.5 39 34 6.4 5.7 13.2 9.8 22.2 9.5 3.6-.1 7.2.7 10.9 1-.2 3-2.5 3-4.6 3.1-2.3.1-4.4.6-6.4 1.8-10.6 4.9-21.9 3.9-33 2.8-28.3-2.9-55.4-11.5-82.6-19.4-20.3-5.9-40.3-12.9-60.4-19.3-9.4-3-18.3-7.2-27.8-9.8-2.1-.4-4.1-1-5.8-2.2-4.8-3-10.1-4.9-15.7-5.9-3.6-1-7.4-1.7-10.5-4.1-6.7-4.1-13.8-7.5-21.5-9.1-16.3-5.8-33.1-9.8-49.6-14.8-12.9-3.9-25.3-8.8-36.3-17-1.7-1.2-3.2-2.6-5.1-3.2z" class="stn5"/>
    <path d="M1032.1 854.1c43.3-11.2 86.6-22.5 130-33.7 38.8-10 77.7-20 116.6-29.9 1.1-.3 2.3-.2 3.4-.3 6.5-.3 12.8-1.6 19.2-2.2 2.7-.2 5.3-.5 7.9 0 5.8 1.2 7.4 5.4 4.2 10.4-1.5 2.2-4.9 4-3.1 7.2 1.7 3.2 5.2 2.3 8.1 2.4 9.1.5 18.2.2 27.3 1.7 5.8.9 11.6 1.7 16.5 5.1 2.5 1.8 4.7 0 7.1.3 1.3 1.7 1.1 3.6.5 5.5-1.8 1.9-.9 5.1-3.2 6.8-3.2.4-4.7-2.2-6.4-4-2.4-2.4-4.8-3.2-8-2.1-4 1.4-8.3 2-12.5 4.1 6.2-1.4 7.8 2.9 9.2 7.1 1.1 3.2 3.3 6.2 2.1 9.9-13.5 7.5-27.3 14.5-41.9 19.6-2.7 1-5.4 1.8-8.2.5-2.7-2.2-2.9-5.5-4-8.4-2.9-7.5-5.1-8.8-12.8-6.9-11.4 2.7-11.5 3.3-8.7 14.4 1.1 4.5 3.8 9 1.6 13.9-9.1 2.6-18.6 3.8-27.8 5.7-38.7 7.5-77.3 15.8-115.7 24.3-28.2 6.3-56.4 12.9-84.5 20-22.6 5.7-45.2 11.2-68 16.1-4.9 1.1-9.6 2.9-14.5 3.7-4.4-.3-8.4 3.1-12.9 1.2-1.7-3.2 2.4-3.3 3.1-6.2-6.4-1.7-12.7-3.7-19.4-2.6-4.4.7-8.5.5-12.7-1.4-3.5-1.6-7.5-1.6-11.1-2.8-1.7-.6-3.4-1.3-5-2.2-5.1-3.2-5.4-6-.7-9.5 8.2-6.3 16.9-11.8 26.9-15.1 1.6-.5 3.2-1 4.7-1.8 1.6-.8 3.7-1.6 3-4-.5-2-2.6-1.6-4.2-1.8-8.6-1.2-16.8 1.5-25.2 2.1-3.1.2-6.2 1.1-9.4 1.4-2.3.2-5.1.8-5.8-2.2-.8-3 .3-5.7 3.5-6.9 6.1-2.3 11.9-5.3 18-7.4 2.1-.7 4.1-1.5 4.7-4 6-3.4 12.8-4.6 19.3-6.2 25.8-6.1 51.1-13.6 76.8-20 3.9-1 7.9-1.5 12-1.8z" class="stn6"/>
    <path id="5" fill="#c5c5c6" d="M213.1 1090c-.8-1.8-2.4-2.7-4-3.5-16.6-8.6-33.3-17.2-49.8-25.9-25.4-13.3-50.8-26.5-76.1-40.2-8.8-4.8-18.8-7.1-27-13-1.2-.9-2.5-1.6-3.6-2.7-2.4-2.4-2-4.5 1.3-5.6 14.9-4.9 30.1-8.8 45.6-11.3 15.1-2.4 28.7 3.5 42.8 6.4 15.7 3.3 31.3 7.2 46.9 10.9 1.1.3 2.2 1 3.2-.2 2.7.5 3 2.9 3.8 4.8 2.8 7.4 6.8 14.4 9.1 22 6 13.2 11.2 26.7 16.9 40 3.1 7.2 6.5 9.3 14.4 8.3 11.3-1.4 21.9-5.7 32.8-8.8 13.1-3.7 26.1-7.9 39.2-11.7 2.5-.7 5.4-1.3 6.9 1 3.2 4.8 7.6 4.7 12.3 4 4.8 0 9.5.7 14.3 1.4 4.9.7 10.2.5 15.2.1 14.2-1.2 28.3-.4 42.5-.6 2 .3 4.2.2 4.9 2.6.6 2.2-.9 3.7-2.2 5.2-2 2.1-4 3.9-7.2 3.7 6 .9 11.9 1.9 17.6 3.3 5 1.3 6 4.6 3.4 9.1-1.7 2.9-4.1 5.2-5.3 8.4-3.4 8-9.4 14.5-12.9 22.4-1.8 3.8-4.5 7.1-6.5 10.7-2.3 4.4-1.1 6.5 3.7 6.6h19.8c2 0 4-.2 5.8.9.5.4.5.9.1 1.4-10.8 0-21.6.1-32.5 0-2.9 0-4.3 1-5.8 3.5-13.3 22.9-26.8 45.8-40.4 68.6-4 6.6-9.7 11.1-17.2 13.5-16.5 5.4-33.1 10.6-50.2 14-5 1-6 .4-5.8-4.8.5-16.1-1.7-32.1-2.3-48.1-.4-10.7-1.5-21.4-1.9-32.2-.2-5.1-1.4-10.2-.9-15.3.2-2.5-1.3-2.9-3.4-3-8.9-.3-17.9-.8-26.8-1.2 2.4-4.1 4.1-8.4 4.1-13.3 0-2 1.1-3.7 3.2-4.5 13.7-.1 26.5-4.7 39.4-8.5 6.5-2 13.2-3.5 19.9-4.9 12.8-2.6 25.4-6.4 38.4-8 .6-.2-.2-1.2 0-.6l-.2.1c-11 2.6-21.9 5-33.3 5.3-2.3.1-4.6.3-7 .8-15.2 2.8-30.8 3.7-46.1 5.9-4.4.6-9 1.3-13.2-1-1.4-1.2-2.3-2.9-3.1-4.5-1.5-3.9-3.8-7.4-6.3-10.7-3.8-5-4.3-5.1-9.9-2.5-1.8 1-3.8 3.2-6.6 1.7z"/>
    <path fill="#d4d3d3" d="M1032.1 854.1c-20 5.3-39.9 10.5-59.8 15.9-16.1 4.4-32.5 7.7-48.3 12.9-1.1 2-3.2 2.3-5.1 2.7-40.1 9.9-80 20.5-120.1 30.7-1.9.5-3.9 1.3-5.7-.3 3.8-6.9 11.3-8.8 17.5-12.4-1.9-4.5-6.5-1.1-8.8-3.6-2-2.1-2.5-5-6.2-6.2-15.8-5-31.5-10.3-47.1-16-5.8-2.2-11.1-.2-16.5.3-5.6.6-11.1 1.7-16.7 2.6-.2 0-.3.1-.5.1-3.4-.3-8.1.4-9.1-3.3-1-3.6 3.5-4.6 6.3-5.8 2.3-1.1 4.9-1.7 8.8-2.9-5.9-2.2-10.6-4.1-15.3-5.7-18.7-6.5-37.3-12.8-56-19.3-4.1-1.4-7.9.8-11.6 1.5-9.4 2-19.1 1.7-28.5 3.7-2.5.5-5-.6-7.2-1.6-3-1.4-2.8-4 .4-6.1 4.7-3 10.2-3.8 15.4-5.4 3.2-2.2-.4-2-1-2.8-1.4-.2-3 .3-4-1.1-3.4-2.5-7.5-3.4-11.4-4.9-11.2-4.5-22.9-8.2-33.3-14.5-.7-.4-1.5-.7-2.2-1.2-2.3-1.6-5.4-3-4.5-6.4.9-3.1 4.1-2.2 6.5-2.2 3.2 0 6 0 6.6-4.1.1-.5.4-.9.8-1.2 3.6-3.2 5-6.5 1.2-10.5-.5-.5-.2-1.3.3-1.8 10.2.8 20.2 3.3 30.3 5.2 29.4 5.4 58.8 11.1 88.1 16.8 18.7 3.7 37.2 7.8 55.9 11.5 28 5.6 56.2 10.9 84.2 16.4 19.6 3.8 39.2 7.8 58.9 11.6 20.3 4 40.6 7.7 60.8 12.1 6.8 1.5 13.3-2.1 19.9-3.4 9.9-1.9 19.7-4.2 29.9-4.4 5-.7 10-.7 15 0 4 1 8 2 12.1 3.1z"/>
    <path id="6" fill="#777a7e" d="M496 999c1.5-1.8 3.7-1.9 5.8-2 2 0 4 .3 5.3-1.8 12.1-3.6 24.2-7.4 36.3-10.9 23.9-6.9 47.9-13.7 71.9-20.3 24.9-6.9 49.8-13.5 74.8-20.2.2 2.7-2.2 3.1-3.8 3.9-7.3 3.4-15.1 5.2-22.7 7.8-12.7 4.4-25.7 8.2-38.2 13.3-1.7.7-3.5 1.2-5.4 2.7 6.4.6 12.3-.5 18-1.2 32.9-4 65.7-8.3 98.6-12.9 10.3-1.5 20.6-4 31.2-3.9 1.3 0 2.7-.2 4 .1 3.1.8 3.8 2.7 1.6 5.1-2.3 2.5-5.3 4-8.4 5.3-10 4.3-19.6 9.2-28.9 14.9-2 1.2-4 2.4-5.4 4.4-1.8 2.6-1.3 4.4 1.9 5.1 3.3.7 6.5 1.3 9.9 1.2 1.5 0 3 0 4.5.5 1.3.5 2.4 1.2 2.5 2.8.1 1.4-.9 2.1-1.9 2.7-2.7 1.3-5.6 2.2-7.9 4.3-8.4 3.5-17.5 4.3-26.1 7.3-30 7.1-59.8 14.9-89.7 22.1-32.9 7.9-66.2 13.7-99.8 17.4-14.1 1.5-28 4.2-42.1 5.3-15.4 1.2-30.9 2-46.3 2.5-17.8.5-35.6.1-53.5.1-2.4 0-5 .4-7.1-1.5-.8-3.3 2-3.4 3.9-4 20-6.2 40.2-12 60.3-18 23.1-6.9 46.3-13.5 70.5-21-4.9-1.3-8.4-2.9-8.4-8.1-.2-2.7-4.1-1-5.4-3z"/>
    <path fill="#86888b" d="M739 999c1.5-2.5 4.2-3 6.6-4 1.2-.5 3-.6 2.8-2.2-.3-2-2.2-1.8-3.6-1.7-4.2.2-8.3-.4-12.4-1-5-.7-6.3-3.3-3.2-7.3 4.6-5.8 11.8-7.9 17.8-11.6 7.5-4.7 16.3-6.8 23.6-11.8 1.3-.9 3.6-1.7 2.8-3.5-.6-1.4-2.8-1.1-4.5-.9-21.7 2.4-43.3 5-64.8 8.8-12.2 2.2-24.6 2.9-36.9 4.3-9 1.1-18 2.5-27 3.4-7.7.8-15.3 2.2-23.6 1.4 1.2-2.8 3.5-3.4 5.6-4.2 16.8-6.7 34.1-12 51.3-17.7 5.7-1.9 11.9-3 16.7-7.1 22-5.9 44.1-11.9 66.1-17.8l36.9-9.9c9-2.2 18-4.3 27-6.6 28.2-7.2 56.5-14.5 84.7-21.7 6.4-1.6 12.8-3.2 19.1-4.9 2.1 2.8-.9 3-2.1 3.6-6.4 2.7-12.8 5.4-19.4 7.7-2.7.9-3.5 2.6-3.9 5-.3 2.1.8 2.8 2.6 2.6 9-1.4 18-2.5 26.8-4.4 4.5-1 8.7 1.4 13.2.3 1.2-.3 3.3 1.1 3.3 3.1-.1 1.6-.4 3.3-2.3 4.1-1.5.7-3 1.5-4.5 2-11.2 3.3-20.7 9.6-30 16.3-3 2.2-3 3.8.1 6 1.5 1.1 3.1 2.1 4.8 2.4 8.8 1.5 16.7 6.8 26.4 4.6 6.2-1.4 12.7 1.5 19 2.9 2.4.5 1.8 1.9.3 3.1-1.6 1.4-4.2 1.5-5.2 3.7-1.8 3.2-5.3 3.2-8.3 3.9-20.6 5.5-41.2 11-61.9 15.8-19.9 4.7-39.7 9.8-59.7 14.4C797.6 986 772 992 746.6 999c-2.4.7-5 2.1-7.6 0z"/>
    <path fill="#9ea0a5" d="M421.2 1139.1c-10.2 0-20.4-.1-30.6-.2-1.4 0-3.3.8-4-.9-.5-1.2.7-2.4 1.5-3.5 1-1.5 1.9-3 2.9-4.6 14.2-2.6 28.8-3.2 43.1-5 16.6-2.2 33.4-3.9 50.1-5.6 3.9-.4 7-.7 7.3 4.6.1 2.3 2 2.9 4 2.7 8.7-1.1 17.4-2.7 25.9-5 1.3-.4 2.5-1.2 3.2-2.3 2.5-4.5 6.6-5.6 11.3-6.1 33.9-4.1 67.5-10.2 100.8-17.6 51.2-11.3 102-24.6 152.6-38.2 18-4.8 36-9.8 54-14.6 1.9-.5 3.8-1.1 5.9-.5 2.3 2 0 2.7-1.1 3.4-4.7 3.4-9.9 6-15 8.7-12.3 6.6-24.4 13.3-36 21.1-3.9 2.6-7.3 5.7-10.9 8.5-25.5 7.6-51.2 14.8-77 21.1-2.1.5-4.1 1.3-6.1 1.9-12.5 2.8-25.1 5.7-37.6 8.4-17.3 3.8-34.7 7-52.2 9.6-13.1 1.9-26.2 4.1-39.3 5.9-7.6 1-15.4 1.1-23 2.1-10 1.3-20 1.5-29.9 2.8-9.5 1.2-19.1 1-28.7 1.4-3.7 1.1-7.5-.4-11.1.8-3.3.1-6.6.1-9.9.2-5.3 1.1-10.8-.4-16.1.8-3.6.1-7.2.1-10.8.2-8.1.5-15.7.5-23.3-.1z"/>
    <path fill="#b1b3b7" d="M204 1032c-3.4-9.2-7.4-18.1-11.7-27-4.7-11.4-9.5-22.8-14.2-34.1 1.9-1.1 3.1.2 4.3 1.2 3.3 2.7 7 4.8 10.9 6.4 10.9 4.5 22.3 6.5 33.9 8 14.6 2 29.3 4.2 44 5.3 16.8 1.3 32.8 6.7 49.5 8.5 24.5 2.7 48.9 5.7 73.5 7.2 23.6 1.4 47.2 1.9 70.9 1.9 2.9 0 7.3-.5 7.5 2.9.2 4-4.3 3.7-7.4 3.9-8.5.6-16.8 2.4-25.2 3.5-4.4.6-8.3.5-11.6-2.8-.9-.9-2-2-3.5-1.4-1.5.7-.6 2-.5 3.1.3 2.5-1.3 3.2-3.2 3.8-3.4 1-6.9 1.3-10.3 1.9-14.3 2.2-28.8 3.4-43.1 5.8-16.4 1.1-32.7 2.8-49 3.9-9.6.6-19.2.5-28.8 1.3-19 1.5-38.1 1.7-57.2 2.8-10 .7-19.8-.9-28.8-6.1z"/>
    <path d="M1301 862c7.8.3 14.2-4.2 21.1-6.6 8.5-2.9 16-8 24-11.9 1.5-.7 2.9-1.6 4.7-1.4.8.3 1.1 1.2 2.3 1.3-.7-4.7-2.7-8.9-4.2-13.2-.7-1.9-2.5-4.2.1-5.8 2.6-1.6 5.5-3.8 8.8-1.8 4.5 2.7 7.9 6.6 11.2 10.6 2 2.5.2 4.8-1.3 6.9 3.7-3.8 4.6-19.3 1.6-24.9-2.1 2.9-3.8 3.6-7.3 1-7.1-5.2-15.9-5.3-24.2-5.9-7.3-.5-14.6-1-22-.5-2.5.2-6-.1-7.2-3.3-1.2-3 .2-5.3 2.8-7.2 2.2-1.7 3.5-4.2 2.6-7-.9-2.8-3.9-3.1-6.3-3-5.6.2-11.2.9-16.7 1.5-2.9.3-5.9 1.1-8.7-.4 11.3-3 22.6-6.3 33.9-9.1 28.7-7.2 57.4-14.2 86.1-21.2 2-.7 4-.8 5.1 1.4 1 2 3.1 2.4 4.7 3.4-1.1 3.9.8 5.9 3.8 8.3 6.3 4.8 10.1 11.5 10.6 19.6.2 3.4 2 6.8.2 10.3-2.8.5-4.1 1.9-4.2 4.9-.2 3.6-.7 7.2-2.5 10.5-1.2 1.6-2.4 3.1-4.6 3.4-2.4-.6-2.4-2.9-3.2-4.7-1.5-3.1-2-6.6-4.4-9.3-1.8 1.3-1.6 3.2-2.6 4.6 4.9-.2 8.9 7.4 8.4 15.1-3.4 1.2-5.5 4.8-9.4 4.9-1.1-2.2-2.9-2-5.1-1.7-4.2.7-5.1-.6-3.5-4.7.9-2.3 2.3-4.4 2.6-7 .5-4.8-2.9-8.4-7.3-7.7-3.1.5-4.6 2.2-3.5 5.5.1-3.1 1.7-4.8 4.8-4.6 3.1.2 4.8 2 5.3 5 .3 1.9-.1 3.6-.9 5.3-.9 2-2 3.8-2.8 5.8-.6 1.5-2.1 3.2-.8 4.6 1.1 1.2 2.8 0 4.2-.3 2.1-.3 4-1.8 6.2-.7.9 3-1.4 4.1-3.3 5.3-5.2 3.2-10.6 6.2-16 9.1-2.6 1.4-4.2 2.8-4.1 6 .1 3.5-2.5 5-5.7 3.8-3.8-1.5-5.5-.1-5 4-4.7 2.7-9.6 3.2-14.8 1.5-2.1-2.4-4-2.2-5.8.6-1.8 2.3-4.2 2.4-6.7 1.9-2.3-1.5-4.4-1.5-6.2 1-4.2 2.7-9.1.9-13.6 2.2-5.7 1.7-11.5 3-17.5 3.3-1.1.1-2.2.3-3-.6-1.1-2.9-2.5-5.4-.7-8.1z" class="stn13"/>
    <path d="M191.9 979.1c-5.5-1.1-9.1-5.5-13.8-8.2-4.6-10.8-9.2-21.5-13.7-32.3-5.6-13.5-11-27-16.5-40.5.3-.5.2-2.2 1.3-1.3 21.4 18 48.5 21.6 73.8 29.8 5.4 1.7 11.1 2.5 16 5.5.4.3 1.1.5 1.2.9 1.6 6.9 7.3 11.4 10.4 17.3 3.6 7 3.9 13.9-.5 20.7 1.4 1.7 2.7.5 3.9-.2 2.4-1.5 4.3-1 5 1.7 1 4 3.3 7.2 5.7 10.4 1.4 1.9 2.5 4.1 1.1 6.5-1.4 2.5-3.9 2.4-6.1 2.1-16.6-2.3-33.2-3.8-49.6-7.3-6.2-1.3-12.2-3.1-18.2-5.1z" class="stn14"/>
    <path fill="#72767a" d="M1403.9 832c2.9-1.7 4.8-5.4 8.9-5 1.6-.1 1.7-1.1 1.5-2.4-.2-1.3-.6-2.6.5-3.7 1.3-1 2.7-2 4-3 1.7.8 3.3 1.5 5.2.8 2.7-1 4.8-.2 6.3 2.7.8-2.6.8-4.4-.7-6.7-2.3-3.4-4.8-7.1-3.9-11.7-.5-8.2-.6-16.5-5.7-23.6-2.1-2.9-4.3-5.4-7.4-7.1-4.8-2.7-4.8-3.8-.8-7.4-.1-.8.2-1.7-.1-2.5-1.6-4.1.8-5.1 4.1-5.5 9.6-1.3 19.1-2.9 28.8-2.8 1.7 0 3.7-.6 5.2.8 5 1.6 10.2 3 14.6 6.1 7.6 5.4 12.6 12.2 12.8 22 .1 4.2-1 7.5-4.7 9.8-2.7 1.4-5.6 2.1-8.4 3.2-3.4 1.4-4.4 3.6-3.2 7.1 2.1 6.3 3.8 12.7 4.8 19.3 1.2 8.8.5 17.6.5 26.3 0 1.5-.3 3-2.1 3.5-6.3-1.8-12.6 0-18.8.4-13.1.8-26.2 2.3-39.3 3.3-4.4.3-8.8 1-13.2 1.1-4.9-2.7-8.8 1.9-13.4 1.9-3.5.3-6.9 2.5-10.4 0-3.6-1.5-2.4-4.3-1-6 1.4-1.7 3.8-1.9 5.1.9.9 1.9 2.6 1.6 4.3 1 1.9-.7 1.4-1.9.9-3.2-1.2-3.4.9-4.8 3.4-6.2 6.1-3.3 12.1-6.8 18.2-10.1 1.4-.8 2.2-2 2.9-3.3.4-.3.7-.3 1.1 0z"/>
    <path fill="#c9c9c9" d="M577 785.1c.1 1.3.8 2.1 1.8 2.8 3.1 2.6 2.8 5.2 0 7.9-1.8 1.7-4.4 3.1-3.2 6.6.6 1.7-1.3 1.5-2.4 1.5-2.3.1-4.7 0-7 .1-1.4.1-3.2-.7-3.8 1.3-.4 1.5.8 2.6 1.9 3.2 6.3 3.5 12.3 7.6 19.2 10 9.9 3.5 19.6 7.8 29.3 11.8.6.3 1 .9.3 1.5-9.2-2-18.3-4.9-26.9-8.7-11.6-5.1-23.8-8-35.8-12-13-4.3-26.3-7.8-39.4-11.9-12.6-4-25.5-7.3-37.8-12.1-8.1-3.2-13.9-8.4-17.3-16.1-4.5-10-7.4-20.5-9.8-31.2-1.2-5.4 0-6.5 5.5-7.1 9.1-1 16.1 3.5 23 8.1 9.4 6.2 18.4 13.1 27.7 19.4 11.2 7.6 23.3 13.1 36.8 15.7 12.6 2.8 24.9 7.5 37.9 9.2z"/>
    <path d="M1284.9 990c-15.4 1.4-30.2 5.1-44.9 9.9-.9.3-1.9.6-2.8.9-6.9 1.9-6.7 1.8-9.5-4.8-4.5-10.7-9.2-21.2-13.8-31.9 5.8-4.9 12-9.4 16.7-15.6 1.1-1.5 3.1-1.8 4.8-2.5 9-3 18.2-5.3 27.1-8.3 1.7-.6 3.5-1.1 5.3.1-3.7 5.8-9.2 9.9-13.9 14.7-2.4 2.4-2.6 3.7 0 6.2 10.5 10.2 20.7 20.8 31 31.3z" class="stn17"/>
    <path fill="#9da0a3" d="M1392 856.1c2.8-.2 6.3 1 6.9-4.1 1.1 3 3.1 3.2 5.4 3 13.2-1.2 26.3-2.5 39.5-3.7 5.4-.5 10.9-.9 16.3-1.2 1.6-.1 3.5-.5 3.9 2 1.1 5 4.2 4.7 8.1 3.5 4.9-1.6 9.1-3.9 12.4-7.9 4.2-1.6 8.7-1.8 13.1-2 6.7-.3 13.5.2 20.2-.9 2.1-.3 4.3-.4 6.1 1.3-9.9 7.4-20.6 13.4-32.1 17.9-17.2 1.2-34.5 2.7-51.6 5.4-2.3.4-4.7.5-6.8-.7-1.4-2.7 1.2-2.8 2.5-3.6 2.9-1.8 6.4-2.5 9.9-5-3.3-1-5.7-.5-8.2-.2-27.6 3.4-54.9 8.1-82.2 13.2-4.7.9-9.3 2.6-14.2 1.9-3-1.2.1-3.7-1.1-5.4-1.7 1.9-.2 3.8-.2 5.7-3.3 1.9-6.8 2.7-10.5 1.5-1.6-.9-1.2-2.9-2-4.4-2.7.9-1.7 3.8-3.3 5.1-2.4 1.4-5.3 1.8-7.6 3.7-1.6 1.3-3.4.8-5.2.4-4.7-1.2-5.3-.7-5.9 4.2-.3 2.3-1.3 3.6-2.9 3.8-1.3-4.5-.9-9-.4-13.5.6-2.2 3.3-1.9 4.5-3.4.3-2.1-3.1-1.4-2.6-3.6 4.8.5 9.3-1.4 13.8-2.4 6.1-1.4 12.3-1.1 18.2-2.7 1.5-1.3 3.2-1.7 5-1 2.4-.3 5.3 1.1 7-1.9 1.8-1.5 3.6-2.7 5.9-1 5.2 2.1 10.1.7 15.1-1 3.7-.4 7.3-.7 11-1.1 3.8-1.4 8.3 1.2 12-1.9z"/>
    <path fill="#63676d" d="M1472.9 791.9c7.7-9.1.3-23-7.4-28.5-4-2.9-8.4-5.2-13.3-6.3-1.1-.2-2.9.2-2.2-2 25.5 1.9 48.9 8.6 66.2 29.1 3.3 3.9 7.8 6 11.7 9-.9 2.1-2.3 3.9-2.1 6.4.2 1.9-1 3.4-2.1 4.9-2.9 4-4 4-7.4.3 0-.7-.7.3-.1 0 1.1 2.5-.5 3.1-2.4 3.6-1.6-.5-1.3-1.7-.9-2.8 1.6-4.2-1.1-7.7-2.1-11.4-.3-1.1-1.2-1.7-2.3-1.1-1.5.9-2.6 2.2-2.2 4 .5 2.6 1.7 5 2.1 7.6.5 3.3 2.4 6.6.9 10.1-4.2-.5-6.1 2.2-7.5 5.5-2.1 5.1-5.7 9.2-9.4 13.2-1.5 1.7-3.3 4-6.2 1.8-1.4-5.2-.4-10.5-1.4-15.7-.9-4.7-2-9.3-3.2-14-1.5-5.4-3.7-10.4-8.7-13.7z"/>
    <path fill="#55585b" d="M1486.9 836c6.3-3.1 9.6-8.9 12.9-14.5.9-1.5 1.8-3.1 2.6-4.8 1.6-3.4 3.8-3.7 6.7-1.8 2.2-1.9 4-4 4.8-6.9 1.5-1 2.2-2.6 2.5-4.3 1.9.5 2.2 4 3.7 2.7 2.3-1.8 5.3-4.2 4.5-7.7-.8-3.3.9-4.5 3.2-5.7 9.7 5.5 16.3 12.9 15.1 24.9-.8 8.3-5.9 14.5-11.1 20.4-2.4 2.7-5.2 5-7.8 7.5-12.4.7-24.8 1.3-37.2 2-.9.1-1.8.7-2.8 1-.6-4.4-.6-9 2.9-12.8z"/>
    <path fill="#65676a" d="M1432.9 868.1c10.8-.1 21.2-2.8 31.9-3.5 8.9-.5 17.9-3 26.9-.7-4.7 2.5-9.6 4.9-14.8 6.2-12.1 3.6-24.7 3.2-37 5.3-9.8 1.7-19.8 2.8-29.6 4.7-11.8 2.2-23.6 4-35.3 6.2-22.2 4.3-44.4 8.5-66.5 13.5-2.7.6-5.2 1.3-6.3 4.2-1.8 4.4-5.3 6.7-9.6 8-3 1-6 2-9.1 2.6-6.1 1.2-7.9-.5-7.2-6.8.1-.7.2-1.3.2-2-.1-2.9.1-5.7.9-8.5.4-5.5-.1-11-.8-16.4-.3-2-.6-4 .2-5.9-.9-6.4-2.6-12.7-4.4-18.8-1.4-4.6-.1-7.3 4.7-8.5 2.9-.7 5.7-1.8 8.6-2.5 5.9-1.4 8.7 0 11.1 5.6 1.6 3.7 2.8 7.5 4.1 11.2.4 2.7.8 5.5 1.2 8.2 1.2 1.4 1.9 2.9.9 4.8.1 5 .1 10 .1 15.1 6.4.7 12.5-1.5 18.6-2.8 21.9-4.8 44-8.5 66-12.7 13.1-2.5 26.2-4.6 39.3-6.5 2-.4 4-1.1 5.9 0z"/>
    <path d="M1232 935.9c.3-2.1-2.1-3-2.3-4.9.5-3 3.2-3.1 5.3-3.7 21.5-6 43.2-11 64.8-16.4 20.7-5.1 41.4-9.9 62.3-14.2 12.9-2.7 25.8-4.9 38.7-7.7 8.3-1 16.3-3.2 24.5-4.4 1.3-.2 2.6-.6 3.9-.6 1.3 0 3-.2 3.4 1.3.4 1.7-1.4 2.2-2.6 2.5-6.9 1.3-8.7 6.5-9.7 12.3-.5 2.7-1.2 5.2-3.5 7-4.1 5.1-4.6 10.9-3.2 17-.3 2.2-2 3.4-3.5 4.7-3.3 3-5.8 6.4-6.1 11-.1 1.3-.1 3.4-2.2 3.2-1.6-.1-2.5-1.6-2.8-3.1-.8-3.8 0-7.2 2.3-10.4.8-1.1 2.6-2.3.9-3.8-1.8-1.5-2.5.5-3.3 1.7-2.4 3.5-4.7 2.1-6.8-.3.3-2.9 2.6-4.6 4.5-6.1 9.9-7.7 9.1-14.8 7.2-23.6-.5-2.3-2.3-1.7-3.4-1.2-2.4 1.1-4.8 1.9-7.5 2-51.1 12.9-102.6 24.2-153.4 38-2.4.6-5 1.8-7.5-.3z" class="stn22"/>
    <path fill="#a9abaf" d="M1417 907c1.3-3.6 2.3-7.2 2.9-11 .8-4.7 2.7-8.4 8.1-9 1.4-.2 2.8-.9 4-2.1-10.3 1.7-20.7 3.4-31 5.1 1.2-4.1 5.4-4.3 8.4-6 3-1.8 3.5-3.1.5-5.2 8.6-2.3 17.5-3.1 26.3-4.5 13.6-2 27.2-3.7 40.9-4.4-4 2.5-8.4 3.8-12.8 5.2-2.3.8-3.6 1.8-3.3 4.5 1 8.5-2.1 13.7-10.9 16.3-8.7 2.6-16.9 6.7-25.2 10.5-2.9 1.5-5.2 1.9-7.9.6z"/>
    <path fill="#abadb0" d="M1232 935.9c8.4-.4 16.2-3.5 24.2-5.6 44.6-11.5 89.3-22.3 134.3-32.1.8-.2 1.6 0 2.5-.1-10 4.9-21 7.2-31.5 10.5-17.9 5.7-36 11-54 16.6-13.2 4.1-26.4 8.3-39.7 12.5-9.7 2.8-19.3 5.7-28.9 8.5-1.3.4-2.6.6-3.8.9-3.2.9-3.2-1.6-3.5-3.5-.3-2-.1-4 1.3-5.7-.3-.6-.6-1.3-.9-2z"/>
    <path fill="#535458" d="m237 1101 2.1 3.9c1.9 2.5 4.6 4.3 6.5 6.8 1 1.3 2.6 2.4 2 4.3-.7 2.3-2.7 1.3-4.2 1.5-.8.1-1.7-.1-2.3.5-2.3 2.1-2.1 4.9-2.1 7.7-.1 3.9-1.5 7.1-5 9.2-11-1.1-22.2-1-32.4-5.9-8.2-3.9-11.2-14.8-6.3-21.9 2.6-1.3 3.5 1 4.5 2.5 2.2 3.4 5.4 3.9 8.7 2.5 7.1-3.1 14.7-3.2 22.2-3.9 3.1-.3 5.2-.4 4.5-4.3-.2-1.3-.2-2.9 1.8-2.9z"/>
    <path fill="#121111" d="M1392.1 927.1c3.2 1.2 5.6 2 7.2-2.7 1-3.1 3.2.1 4.7.7 2.2.9 1.4 2.2.1 3.4-2.9 2.4-4.1 5.5-4.1 9.2 0 1.9.2 3.6 2.9 5.1-.7-9 5.1-13.8 10.9-18.6 6.2 0 11.4 1.8 14.2 7.9.4 3.3 1.1 6.6-.4 9.9-4.1 9.5-9 14-16.8 11.6-5.8-1.8-12.4-3.6-17.3-7.6-5.4-4.6-5.5-10.1-1.4-18.9z"/>
    <path fill="#71747a" d="M237 1101c-.2.2-.7.6-.6.7 1.5 6.1 0 8.9-7 7.8-4.5-.7-9.1 1.9-13.8 1.5-1.7-.2-3.1.5-4.6 1.4-5.6 3.3-9.4 2.3-12.7-3.1-.8-1.2-1.5-2.2-3-2.2 4.1-7.6 11.3-12 17.9-17 3.5-.6 6.1-3.1 9.4-4.4 2.1-.8 3.8-1 5.4.8 3.6 4.4 7.3 8.9 9 14.5z"/>
    <path d="M1415.9 757c-2.5 1-5.7 1.5-2.6 5.3 1 1.2-.5 2-1.4 2.7-2.5-.1-5.3.4-6-3.4-.4-2.3-2.4-1.7-4-1.8.9-.9 1.5-2 2.2-3.2 1.2-2.3 3.8-3.8 6-1.6 1.9 2 3.7 2 5.8 2zm-994.7 382.1h22.9c-7.6 2-15.4.4-23.1.9 0-.3.1-.6.2-.9zm33.7-.2c5.3-1.6 10.8-.7 16.1-.8-5.3 1.8-10.8.5-16.1.8zM1020 851h-15c5-1.6 10-1.6 15 0zm-539.1 286.9c3.6-1.5 7.4-.7 11.1-.8-3.6 1.9-7.4.5-11.1.8zm946.7-196c.8-3.3.7-6.6.4-9.9 1.3 3.4 1.9 6.7-.4 9.9zM617 833.1c1.7-.2 3.2.2 4.3 1.5-.7 1.6-2.1 1.3-3.3 1.3-.3-.9-.6-1.9-1-2.8z" class="stn17"/>
    <path d="M786 1083.9c1.3-2.8 3.4-4.7 5.9-6.6 15.3-11 32.1-19.4 48.4-28.6 3.3-1.8 6.4-3.9 9.6-5.9 3.7-3.5 7.9-5.4 13.1-4.8 1.9 3.4 4.6 1 6.6.5 12.7-3.7 25.4-7.6 38-11.6 19.9-6.2 40.1-11.5 60.7-14.8 7.8-1.2 16.7-1.2 22.5 3.9 5.7 4.9 12.2 7.6 18.3 11.3 2.4 1.4 4.9 2.9 7.9 1.1 1-.6 1.9 0 2.8.3 5.4 1.8 10.1 5 15 7.7 2.1 1.2 2.4 2.6-.5 3.6-5.9 2-11.8 4.3-18.3 6.7 1.5 1.7 2.7 2.3 4.3 2 7.9-1.6 15.9-3.1 23.7-4.8 2.2-.5 4 0 5.7.9 8.4 4.6 16.8 9.2 25.1 14.1 5.2 3.1 5 6.8 0 9.8-2.7 1.6-5.2 3.6-7.8 5.3-.7.1-1.4.1-1.9.4-4 2.1-5.5.5-6.1-3.6-.8-5.9-2.2-11.8-2.8-17.7-.3-3.1-1.7-3.5-4.3-3-8.9 1.8-17.9 3.5-26.8 5.3-4 .8-7.8.9-11.8-.2-4.9-1.4-9.5 1.1-14.1 2.1-15 3.2-30.2 4.5-45.4 5.8-9.3.8-18.5 2-27.8 2-2.2 0-4.6.2-6.2-1.4-2.9-3.1-5.9-2.4-9.5-1.3-27.1 8-54.2 15.9-82 21-9.3 1.7-18.7 3.1-28.2 2.7-4.9-.2-9.1-3.7-14.1-2.2z" class="stn28"/>
    <path fill="#b7b8b8" d="M1268.9 1300c2.2-8.2 2.8-16.6 4.3-24.9 1.3-6.9 2.2-14.2 4.8-21 .4-1 1-1.6 1.9-2.1 10.4-5.8 19.6-5.8 29.1 1.6 6.9 5.4 13.7 10.9 20.7 16.2 2.3 1.7 4.6 3.8 8.1 2.9 1.4-.3.8 1.4 1.1 2.2-5.5 5.6-12.7 8.4-19.7 11.3-11.4 4.6-22.2 10.7-34.4 13.2-3.9.8-7.8 1.5-11.7 2.3-1.8.4-3.3.1-4.2-1.7z"/>
    <path d="M984 979.1c-1.8 2.9-4.8 3.9-7.8 5-1.5.6-3.8.8-3.7 2.7.1 2.1 2.5.7 3.7 1.4.7.4 1.4.8 2.4 1.3-3.4 4.3-8.4 5.2-12.7 6.8-21.3 7.7-42.7 15.3-63.6 24.1-.7.3-1.6.4-2.4.6-5.3 0-9.9 2.5-14.9 3.8-62 16.3-124 32.5-186.3 47.6-46.9 11.4-94.1 21.7-141.8 29.3-6.9 1.1-13.8 2.3-20.7 3.3-7 1-8.5-.2-8.6-7-.1-3.8-2.1-7.5 0-11.3 1.2-1.3 2.8-1.8 4.4-2 15.8-1.3 31.3-4.8 46.9-7.7 1-.2 2-.3 3-.3 2.2 0 3.6 1.2 4.6 3.2.6 1.2 1.4 2.4 3 2.1 1.5-.2 2.4-1.4 2.5-2.7.1-4.1 3-4.6 6-5.2.7-.2 1.4-.3 2.1-.3 1.9-.1 3.7.2 4.9 1.9 2.4 3.4 4.3 2.3 5.8-.8.7-1.3 1.1-2.8 2.5-3.6 3.7-1.2 7.3-2.6 10.7.7 1.5 1.5 3.2.8 4.2-.9 2-3.7 5.5-4.6 9.2-5.1 2.4-.3 3.9 1.7 6.3 2.5-.5-3.7 2-4.5 4.7-5.1 13.2-3.3 26.5-6.6 40-8.8 5.4-.9 10.5-2.3 15.8-3.4 6.8-1.3 13.2-4.9 19.8-5.2 8.3-.4 15.3-4.5 23.4-5.4 6.3-.7 12.8-4 19.4-5.8 28.4-7.6 56.9-15 85.4-22.1 7.3-1.8 14.6-3.6 21.6-6.1 2-.7 5.2-.1 5.5-3.3.2-3.2-.6-6.3-4-7.9-.3-2.7 1.9-2.5 3.2-2.3 3 .4 5.7-.5 8.5-1.2 2.2 1.8 2.3 4.4 2.3 6.7-.1 3.5 1.3 3.9 4.2 2.8 1.5-.6 3.1-1.1 4.6-1.8 2-.6 3.9-1.5 6-1.9 4-.4 8-.5 11.4-3.1 1.4-1.1 3-1.5 4.7-1.2 4.3.8 8.1-.9 11.9-2.8 1.3-.6 2.7-.9 4.1-1 4.5-.2 8.9-.9 12.6-4 .9-.4 1.9-.5 2.9-.4 9-.7 17.5-3.9 26.2-6 1.7-.7 4-2 6.1-.1z" class="stn28"/>
    <path fill="#3a3737" d="M528.1 1087.1c.3 4.2 1 8.3.8 12.4-.2 4.4 1.8 4.9 5.4 4.3 13.1-2.2 26.3-4.1 39.4-6.4 80.3-14 159-34.7 237.8-54.9 27.9-7.2 55.7-14.6 83.6-21.8 1.5-.4 3.3-2 4.8.2-12.5 5.3-25 10.6-37 17.1-4.4 1.6-8.7 3.2-13.1 4.8-13.9 2.8-27.4 7-41 10.7-49 13.2-98 26.2-147.5 37.8-29.3 6.9-58.8 12.8-88.5 17.8-13.7 2.3-27.5 3.8-41.2 5.9-1.9.3-3.7.5-4.4 2.6-1.2 3.6-4.2 5.1-7.6 5.8-8 1.7-16 3.1-24 4.5-4 .7-7.2.1-6-5.4.5-2.2-.9-2.5-2.7-2.3-23.1 2.8-46.2 5.5-69.4 8.2-8.2 1-16.6.9-24.8 2.4-.9.2-1.6-.2-2.1-1 2.1-3.3 4.1-6.7 6.2-10 3.2-2.2 7-1.8 10.6-2.3 24.1-3 48.2-5.5 72.3-8.3.5-.1 1-.1 1.5-.2 8.5-1.1 8.9-1.6 7.6-10-.3-2.1-.6-4.3-.6-6.4-1.2-5.5-1.4-11.1-2.4-16.7-.7-4.6-2.8-9.1-1.9-14 1.2-3.4 3.8-5.4 7.1-6.5 6.5-2 13.1-3.8 19.9-4.6 5.7-.7 9 1.9 11.7 8.6 1.6 4.8 3.1 9.6 4.2 14.5 1 4.6 3.7 8.7 1.3 13.2z"/>
    <path fill="#8e9091" d="M984 979.1c-10.3 2.5-20.6 4.9-30.8 7.4-.9.2-1.6.4-2.2-.5 0-2 .5-3.9.7-5.9.3-4.6 3.5-7.1 8-6.8 2.3.1 3.1 1.6 3.5 3.5.3 1.2.4 3 2.2 2.9 1.7-.1 2.1-1.7 2-3-.2-5.5 3.3-7.1 7.9-7.8 5.3-.8 10.3-2.8 15.5-3.9 2.9-.6 5.3-.5 6.4 2.9.3 1.1.9 2.3 2.4 2 1.5-.3 1.7-1.5 1.6-2.7-.2-3 1-4.7 3.9-5.5 3-.9 5.2-.3 6.7 2.6.5 1 1.4 2 2.8 1.4 1.2-.5 1.7-1.7 1.7-2.9 0-3 1.4-4.6 4.3-5.2 2.3-.5 4.3-.6 5.5 2 .5 1 .9 2.4 2.4 2.2 1.3-.2 1.9-1.4 2-2.6.5-3.3 2.7-4.7 5.6-5.6 8.8-2.6 17.9-4.2 26.5-7.2 7-2.4 14.4-3.3 21.4-5.8 7-2.5 14.9-2.8 22.4-4.5 1.9-.4 3.3 1.2 5.4 1.8-1.1-1.4-3.2-2.2-1.9-4.2 1-1.6 2.7-2.1 4.4-1.6 6.2 1.9 11.8-1.2 17.6-2 1.7-.2 2.9-1.4 3.9-2.8 2.1-3 4.7-4.2 8-1.6 2.5 2 4.2.7 5.7-1.5 3.1-4.5 4.3-4.8 8.7-2 2.5 1.6 3.9.8 5.2-1.5 3.1-5.4 3.2-5.4 8-1.6 2 1.6 4.5.7 5.3-2 .4-1.4.4-3 1.8-3.9 1.3-.9 2.8-1.4 4.3-.7 2.8 1.2 2.1 3.9 2.5 6-.3 4.4-4.3 4.8-6.9 6.9.7.9 3.2.5 2.4 2.9-9.8 3.6-20.1 5.5-30.2 8.1-23.2 5.8-46.4 11.5-69.5 17.5-32.3 8.2-64.7 16.7-97.1 25.2z"/>
    <path d="M1409.8 879c1.7.3 4-.5 4.4 2.1.3 2.1-1.7 2.5-3.1 3.3l-10.2 5.7c-17.4 3.6-34.8 7-52.2 10.8-38.8 8.6-77.3 18.1-115.8 28.2-1.2.3-2.7.5-3.3 1.9-4.4-3.5-9.4-5.3-15.2-5.1-6.9.2-13.8 0-20.7 0 .5-2.6 2.8-2.5 4.6-3 23.3-5.3 46.4-11.6 69.8-16.7 3.1-.7 6.3-2.7 9.5-.1-.6 8.9-.3 9.2 8.6 6.5 2.7-.8 5.4-1.7 8-2.7 2.7-1 5.5-2.4 6.1-5.4.9-4.6 4.1-5.4 7.8-6.2 30.4-6.8 61.1-12.3 91.7-18.2 3.5-.5 6.9.5 10-1.1z" class="stn32"/>
    <path d="M1277.8 906.2c-9.5.7-18.4 3.7-27.6 5.8-17.9 4.1-35.7 8.5-53.6 12.8-1 .2-2 .2-2.7 1.1-4.3.7-8.6 1.5-12.9 2.2-1.1-1.6-2.7-2.2-5-1.7 2.4-3.8 7.2-3.8 8.9-7.5.9-2.2 3-2.5 4.9-2.8 27.5-5.3 54.6-12.5 82-18.6 1.5-.3 2.9-.7 4.4-.7.9 0 1.7.2 2.4.8-.9 2.9-.6 5.8-.8 8.6z" class="stn33"/>
    <path d="M1232.9 938c1 3-2 6.9 2.1 9.1-2.6 1.2-4.4 3-6.2 5.2-4.1 4.9-8.5 9.6-14.8 11.8-3.5-4.9-2.4-10.3-1.6-15.6.7-4.9 3.7-7.3 8.7-7.5 4.1-.2 8-1.6 11.8-3z" class="stn32"/>
    <path d="M191.9 979.1c9.6 2.5 19.2 4.9 29 6.4 6.7 1 13.3 2.5 20.1 2.6 5.5.1 10.9 1.7 16.4 2.6 2.7.5 5.6.9 7.3-1.6 1.9-2.9-.6-5-2.2-6.9-2.3-2.7-4.3-5.5-4.5-9.2-.2-3-1.7-3-3.4-1-1.9 2.2-3.9 2.3-6.1.7-1.4-1-1.7-2.3-.2-3.2 6.3-3.6 3.1-9.4 3.1-14.1 0-2.8-2-6.3-4.2-8.3-4.5-4.2-6.7-9.3-8.2-15 8.1 1 15 4.8 21.9 9-1.2 1.4-2.8.2-4.5.8 1.7 4.3 4.9 7.8 5.2 12.7.2 3.2 4.1 1.3 5.7 3 .5-1.1-.4-1.4-.6-2-.9-2.2-1.7-4.8.4-6.5 2.4-2 4.3.3 6 1.8 5.8 5.2 12.4 3.4 19 2.2 7.7 1.1 14.4 4.9 21.7 7.2 15.8 5 31.5 10.4 47.3 15.6 28.4 9.4 57.2 17.5 86.6 23.5 11.5 2.3 23.1 3.1 34.8 2.8 4.8-.2 9.1-2 13.6-3.1h3.5c2.5 0 5-.7 3.4 3.8-1.3 3.6 1.9 5 5.3 5.2 1.5.1 3.9-.8 4 1.6.1 1.8-2.3 1.6-3.6 2-20.5 6.2-40.9 12.3-61.4 18.4-23.3 7-46.7 13.9-70 20.9-.8.2-1.4.7-2.1 1.1-8.8 3-17.4 7.1-27 7.4-3.1-4.7-7.5-8.7-7.7-15.1-.1-2.8-9.4-7.4-12.6-6.7-2.4.6-5.8 2.1-6.4-1-.5-3 3.1-3.5 5.9-3.7 13.2-1 26.3-2.5 39.5-3.5.5 0 .9-.2 1.3-.6 11.5-2.6 23.4-2.9 35-4.9 5.9-1 11.8-1.9 17.7-2.7 2.8-.4 3.6-1.2 1.6-3.7-.7-.9-2.2-2.4-.3-3.3 1.5-.7 3.8-2.5 5-.5 4.4 7.1 10.8 4.9 17 4.1 7.9-1 15.7-2.9 23.7-2.9 1.8 0 3.6-.4 4.7-2.3-1.7-1.9-4-1.5-6.1-1.5-8.8-.1-17.7-.1-26.5-.1-31-.3-61.8-2.2-92.6-5.8-18.8-2.2-37.8-3.7-56.1-8.4-13.6-3.5-27.4-3.3-41.1-5.7-18-3-36.4-3.7-53.8-9.9-1.6-.6-3.3-.9-4.5-2.2z" class="stn34"/>
    <path d="M292.1 953c-.1.9-.4 1.6-1.2 2-2.5 1.4-15.3-.4-17.6-2.3-1.6-1.4-3.1-5-5.4-3.1-2.1 1.8-.9 4.9 1.3 7 .7.7 1 1.7 1.8 3.2-3.6-.7-6.2-2.7-9.4-2.4-.9.1-1.6-1.3-1.4-2.4.8-4.8-2.7-8-4.5-11.8-.5-1.1-2.2-2.1-1.1-3.5s2.3.4 3.5.6c1 .2 1.9.4 2.9.5 3 2.2 6.8 2.6 10.1 4 5.3 2.1 10.7 3.8 15.9 6l5.1 2.2z" class="stn14"/>
    <path d="M287 951c-5.6-1.1-10.9-3.2-15.9-6 5.7 1 11 2.9 15.9 6z" class="stn34"/>
    <path d="M1278.6 897.7c-.6.1-1.1.2-1.7.2-.5-2.1-.9-4.2-3.9-4.2-1.6 0-2.5-1.5-3.2-2.9-.5-1.1-1.1-2.2-2.6-2-1.7.3-1.7 1.8-2 3.1-.1.3-.1.7-.1 1-.3 2.3-1 4.4-3.6 4.8-2.9.5-4.4-1.3-4.9-3.8-.8-3.7-4.6-2.1-6.4-3.8-2.9-2.7-4.1-.4-5.8 1.5-2.1 2.2-5 3-7.8 1.9-2.2-.8-3.7-.9-5.2 1.1-1.1 1.4-2.8 2.1-4.4 2-11.3-.4-21.7 3.7-32.3 6.4-15.5 3.9-31.3 6.6-46.8 10.1-26.3 5.9-52.6 11.9-78.8 18.2-27.2 6.6-54.2 13.7-81.4 20.3-14.7 3.6-29.5 6.9-44 11.3-2 .6-4.1 1.5-6.3.6-1.7-2.9 1-3.2 2.5-4 3.3-1.8 7.1-2.5 10.7-4.2-4-3.7-3.7-5.1 1.3-7 4.6-1.8 9.6-2.2 14.1-4.3 23.9-5.9 47.8-12 71.9-17.3 13.2-2.9 26.3-6.8 39.5-10 25.4-6 50.9-12 76.4-17.5 17.4-3.8 35-7.2 52.4-11.2 21.9-5 44.1-8.8 66.2-13 1.4-.3 3-.1 4.5-.1 1.7 7.6 2.3 15.2 1.7 22.8z" class="stn35"/>
    <path id="2" fill="#a9abae" d="M966 944c-3.1 2.8-7.1 3.4-10.9 4.5-2.4.7-4.8 1.4-6.6 3.2.1.3.2.7.4.9 1.3 1.1 4.3-.6 4.3 2.1 0 2.1-2.6 2.2-4.2 2.9-4 1.7-8.7 2.1-12 5.5-1.3 2.1-3.5 2.3-5.6 2.9-23.2 6.2-46.8 11.3-70.1 17.4-11.7 3-23.6 5.5-35.3 8.8-10.6 1.2-20.7 4.8-30.9 7.4-12.7 3.2-25.5 6.2-38.2 9.3-14.2 3.4-28.3 7.1-42.5 10.6-2.2.5-4.5 1.3-6.8.3-1.6-2.2.2-2.8 1.7-3.6 1.6-.8 3.6-.8 5.7-2.2-2.2-.9-4.1-.4-5.8-.6-1.5-.2-3.8.2-3.9-2.1-.1-1.8 1.6-2.7 3.3-3.2 1.9-.6 3.8-1.1 5.5-2 8-3.5 16.8-4.2 25-6.9 9.6-1.2 18.6-4.7 27.9-7 21.7-5.2 43.5-10.1 65.3-15.3 19.6-4.7 39.2-9.7 58.8-14.6 20.7-5.1 41.5-10 61.9-16.2 4.5.5 8.5-2.3 13-2.1z"/>
    <path fill="#cccdcf" d="M1369.1 815.1c1.4 0 2.9-.2 2.8 1.8-.1 7.3 1 14.6-1.1 21.8-.5 1.7-1.1 3.2-3.1 3.4-1.2.1-2.4.2-3.1-1.1-1-1.8.6-1.7 1.6-2.2 3.2-1.7 3.2-3.8.6-6.2-2.6-2.4-5.2-4.7-7.4-7.4-3.4-4.1-6.7-1.3-10-.2-1.9.7-.4 2-.1 2.8 1.6 4.5 3.3 9 4.8 13.6.5 1.6 1.9 3.8-.9 4.4-3.1.6-1.9-2.3-2.5-3.8l-4.2-11.7c-1.1-2.9-2.5-5-6.1-3.1-1.3.7-2.7.8-3.3-.8-.9-2.2 1-2.6 2.3-3 4.9-1.4 9.9-2.6 14.9-4 2.1-.6 3.5.2 4.9 1.6 2.1 2.1 4.3 4.1 6.5 6.2.7-.4 1.9 2 2.2-.5.2-1.9-.5-3.9.9-5.6l.3-6z"/>
    <path d="M1368.9 821v8.2c-1.8.1-2.3-1.2-3.1-2.2 2.6-1.1-.6-5.3 3.1-6z" class="stn13"/>
    <path fill="#5f5e61" d="M368.1 1028.9c-3.3 1.5-6.9 1.8-10.5 2.1-10.2.9-20.4 2-30.6 2.9-2.2.2-3.7 1.2-5.4 2.7.6.4 1.4 1.1 1.7 1 5.4-2.9 9.8-1.6 14.4 2.3 2.3 2 5.7 2 4 6.8-.6 1.7 2.3 4.8 3.8 7.1 1.1 1.7 2.4 3.2 2.5 5.3-.1 2.5-2.3 2.4-3.9 3-5.6 2-11.4 3.1-17.2 3.9-4.9 1.4-9.1.8-11.9-4.1-1.3-2.3-3.4-1.9-5.7-1.2-21.6 6.5-43.2 13-64.8 19.3-4.8 1.4-9.6 2.1-14.7 1.1-4-.8-6.4-2.6-8-6.4-5.8-14.3-11.9-28.5-17.9-42.7 6 .7 11.6 3.3 17.6 4.1 11.2 1.6 22.2 0 33.3-.5 9.9-.4 19.9-.6 29.8-1.4 25.2-1.9 50.6-1.8 75.8-5.2 2.7-.2 5.2 0 7.7-.1z"/>
    <path fill="#9da0a4" d="M327 1065.9c6.9-2.8 14.4-3.7 21.1-6.9 6.6-1.9 13.2-3.8 19.8-5.8 2.4-.7 4.7-1.4 7.2-1.1 1.5 1.5 3.5.9 5.2.9 18.8.1 37.6.7 56.4-.1 25.9-1 51.8-2.2 77.5-6.4 14.3-2.3 28.9-3.5 43.3-5.6 13.1-1.8 26-4.7 39-7.2 34-6.5 67.2-16.5 100.9-24.4 5.5-1.3 11-2.3 16.5-3.4-2 2.8-6.2 2.2-8.6 5.6 3.1 1 6 .2 8.7.5 1.2.1 3.1-.7 3.3 1.1.2 1.6-1.5 2.3-3 2.8-2.5.9-5.8.1-7.5 3-2.6 2.8-6.2 3-9.5 3.8-38.2 9.8-76.8 17.8-115.4 25.6-17.5 3.5-35 6.2-52.6 9-2.7.4-5.1 1.4-7.4 2.7-3.6-7.5-5.2-8.5-13.5-7.1-5.5 1-11 2.6-16.5 3.9-3.1.7-5.4 2.4-6.8 5.3-6.4 2.4-13.2 1.1-19.8 1.8-18.2 1.7-36.4 3.6-54.6 3.7-3.3 0-6.4-1.8-9.7-.7h-34.3c-6.1 0-12.2.2-18.1.6-4.5.3-8.1-.9-12.1-1.4-3.2-.4-6.3-.1-9.5-.2z"/>
    <path fill="#b7b8bc" d="M401 1067c1.3-1.5 3.1-1 4.7-.9 11.5.6 23-.2 34.3-1.3 14.3-1.3 28.7-2.1 43-3.6.9-.1 1.6.3 2.1 1-.5 4.8 1.6 9.2 2 13.8.4 4.7-.4 5.8-5.8 6.2-7.8.5-15.5 1.5-23.2 2.3-10.9 1.1-21.8 1.6-32.6 3.1-3.3.5-6 1.4-7.8 4.5-1.6 2.7-3.8 5.1-6.9 6.1-.3-.1-.5-.2-.8-.3.1-3.8 3.4-5.9 5.1-8.8 2.4-4.2 1.7-7.3-3-7.7-5.7-.4-11.1-3.4-17.1-2-1.5.4-2.5-1-2.5-2.4s1.4-2.3 2.4-1.8c4.8 2.5 5.9-2.5 8.2-4.3 2.1-1.7 1.2-3.9-2.1-3.9z"/>
    <path d="M489.9 1092.3c.4 4.8.7 9.6 1.1 14.4.2 2-.5 3-2.7 3.2-30.4 3.3-60.8 6.7-91.2 10 3.1-8 9.1-14.4 13-22.1l.2.3c11.3.1 22.4-1.8 33.6-3 13.5-1.4 27-2.8 40.6-4.3 1.9-.2 3.9-.2 5.4 1.5z" class="stn5"/>
    <path fill="#6c6f73" d="M241.1 1118c5.8-2.3 5.7-2.3 1.7-7.6-1.3-1.8-3.8-2.8-3.7-5.5 7.2 2.5 14.4.2 21.6-.3 16.7-1.3 33.1-4.9 49.9-5.8 8.1-.5 16.1-2.1 24.2-3.2 2-.3 3.9-.4 6 0-4.1.9-8.4 1.7-12.5 2.9-19.6 5.4-39.9 8.4-59.1 14.9-9.2 3.1-18.5 4.7-28.1 4.6z"/>
    <path fill="#878a8f" d="M343.6 1089c-2.8-.3-5.6-.7-8.4-.9-3.7-.3-3.8-3.7-4.3-5.9-.6-2.7 2.3-2.8 4.1-3 2.8-.4 5.7.3 8.3-1.2 1.4-.8 2.2 0 2.7 1.2.6 1.4 1.2 2.8 1.6 4.2 2.1 5.5 1.9 5.8-4 5.6z"/>
    <path id="1" fill="#bfc1c3" d="M1425.9 803.1c2.4 4.2 1.9 10 7.2 12.8.2.1-.8 5.1-1.2 7.8-.1.8-2.3.2-2.5-1.1-.7-4.3-3.4-3.2-5.8-2.3-2.5 1-4.2.8-4.6-2.3 1.3-4.5 1.8-9.2 2.5-13.9.5-3.7 2.2-3.9 4.4-1z"/>
    <path fill="#c8c9cb" d="M1403.9 832c-.3 0-.6.1-.9.2-3 .8-6.1 1.5-9.1 2.4-3.6 1-4.1-.2-3.2-3.5.9-3.1 2.6-5.8 4-8.6 1-2 1.7-4 1.2-6.2s-2-3.4-4.3-3.4c-2.1 0-3.7.8-3.3 3.2.2 1.3-.1 2-1.3 2.2-1.6.2-1.9-1-2-2.3-.2-2.5 0-4.8 2.7-5.8 4-1.5 7.5-1 10.1 2.6 2.1 3 1.9 6.2.5 9.5-1.1 2.3-2.2 4.7-3.1 6.6 2.5 3.4 8.2-5.5 8.7 3.1z"/>
    <path fill="#c6c8ca" d="M1414.9 821c.3 1.7.8 3.5 1 5.2.2.9.3 2.1-1 2.4-1.2.3-1.7-.7-2.1-1.6-1.1-5-2.7-9.8-4.9-14.2-2.3-.7-1.9 3.9-4.2 2-1.9-1.5.2-3.3.7-4.9.2-.6.5-1.2.6-1.9.2-1.2.3-2.5 1.7-2.7 1.7-.2 2.1 1.3 2.6 2.5 1.9 4.5 3.7 8.9 5.6 13.2z"/>
    <path d="M1303.1 875c-.2-1.6-1.3-3-.9-4.8.6-.4 1.2-.7 1.7-1.1l.3.3c1.3 1.4 5.1-.6 4.5 3-.5 2.9-3.3 2.6-5.6 2.6z" class="stn46"/>
    <path d="M1353.9 860.1c-2 .3-3.9.7-5.9 1 .1-2.2 1.3-3.7 3.4-3.9 1.8-.1 2.5 1.2 2.5 2.9zM1341 863c-1.5 1-3.2 1.1-5 1 .9-3.7 2.6-4 5-1z" class="stn6"/>
    <path fill="#323538" d="M1486.9 836c-1 4.3-2 8.7-2.9 13-2.4 4.2-13.6 10-18.2 9-3.9-.8-1.2-4-1.8-6 1.8-9.5 1.3-19 .5-28.5-.6-6.7-2.6-13.3-4.7-19.7-1.8-5.6-1.2-7.1 4.2-9.2 2.9-1.1 6-1.8 9-2.7 4.8.4 6.6 3.9 8 7.7 4.3 11.7 6.6 23.8 5.9 36.4z"/>
    <path d="M1392 856.1c-1.9 2.3-3.3 5.6-7.2 2.2-1-.8-3.2-.3-4.8-.3 2.5-1.5 5.7-1.1 8-3.5 1.3-1.6 2.8.5 4 1.6z" class="stn13"/>
    <path d="M1432.9 868.1c-10.9 2.9-22.2 3.7-33.3 5.7-30.5 5.6-61 11.1-91.3 17.6-1.8.4-4.3 2.4-5.1-1.3 1.2-1.8.6-3.9.7-5.8.2-4.4 3.1-6.7 6.8-4.5 2.7 1.5 4.1 1.6 6.3-.7 1.6-1.8 4.5-2 7-1.9 1.6-.6 3.3-.6 5-1 3.8.1 7.5-.3 11-2 12.3-1.5 24.4-4.4 36.6-6.3 16.9-2.7 33.7-6.2 50.8-7.8 5.7-.5 11.4-2.2 17.2-1.9 1.3.1 3.5-.9 3.8 1.1.3 1.5-1.5 2.4-2.9 3-4.2 1.9-8.4 3.8-12.6 5.8z" class="stn46"/>
    <path d="M1328.9 876c-1.2 2.4-3 2.3-5 1 0-1 .1-2 0-3-.3-2.6 1.4-3.1 3.4-3.2 2.8-.1 1.2 2 1.6 3.2.2.6 0 1.3 0 2zm20.2-8c.6-1.8-.1-4.1 2.3-3.5 1.4.3 2.6 1.6 2.4 3.3-.2 1.8-1.7 2.6-3.2 2.6-1.7-.1-1.7-1.6-1.5-2.4zm-9.1 6c-5.5 0-.8-3-1.3-4.4-.5-1.7 1-2.4 1.9-1.9 2 1.1 1.5 3 .4 4.7-.3.5-.7 1.1-1 1.6z" class="stn6"/>
    <path fill="#8293a3" d="M1513.9 808c1.4 4.4-1.2 6-4.8 6.9-.7-5.8-2.1-11.3-3.9-16.8-.9-2.7 1.5-6.9 4.1-7.6 1.8-.4 2 1 2.3 2 1.7 5 4.3 10 2.3 15.5z"/>
    <path id="3" fill="#bbbdbf" d="M1299.7 872.2c.3 5.8 1.4 11.5 1.2 17.4-.1 2.4-1 3.6-3.3 4.1-4.4.9-8.8 2-13.1 3-2.5.6-3.3-.2-3.3-2.7.1-6.6 0-13.3-1.1-19.9 2.3-1.9 5.2-3.2 5.6-7 .2-1.9 3.3-3 4.4-1.8 2.7 3.3 6.8 4.1 9.6 6.9z"/>
    <path fill="#8e9092" d="M1299.7 872.2c-.9-.8-2-1.4-3.2-1-2.8 1-4.4.5-4.7-2.8-.2-1.7-1.5-2.5-3.3-2.3-1.3.1-2.6 1-2.3 2.1 1.4 5.7-2.8 5.3-6.1 6-1.5-5.6-2.8-11.2-4.5-16.8-1.1-3.5-.2-5.5 3.2-6.4 2.7-.8 5.5-1.2 8.1-2.2 4.5-1.8 6.5.4 7.8 4.2 2.2 6.2 3.8 12.6 5 19.2z"/>
    <path fill="#babcbe" d="M1280.1 908.4c0-2.2 1-3.8 3.6-4.3 3.4-.7 6.8-1.7 10.2-2.4 1.7-.4 3.9-1.8 4.8.4 1 2.2-.7 4.2-2.8 5.2-4.2 2.1-8.7 3.2-13.2 4.3-2.7.6-2.7-1.1-2.6-3.2z"/>
    <path d="M1411.8 929.8c-.4 2.7-1.3 3.8-3.5 3.9-.1-2.3 1.3-2.9 3.5-3.9z" class="stn22"/>
    <path fill="#262a2d" d="M919.6 1060.1c3.5-1.1 6.7-2.1 10.1-3.1.6 2.8-.6 4.9-2.7 5.9-2.6 1.2-5-.3-7.4-2.8z"/>
    <path d="M826 991c12.1-4.2 24.6-6.3 36.9-9.5 15.9-4 31.6-8.7 47.6-12 8.9-1.8 17.5-4.7 26.4-6.6 6.2-.3 11.9-3 17.8-4.4 22.6-5.7 45.3-11.2 67.8-17.1 25.6-6.7 51.3-13 77.1-19 27.4-6.3 54.8-12.5 82.4-17.6 8.1-1.5 16-4.1 23.9-6.4 3.1-.9 6.4.2 9.3-1.4 3.3-1.8 6.4-4.1 10.6-1.5.9.5 4.4.1 5.5-2.9.7-1.9 2.3-4.4 4.9-.8 1.6 2.2 7 .7 8.2-2.2 1.5-3.7 2.9-5.6 5.8-1.1.1.1.2.4.3.4 5-.1 8 2 8.5 7.3.1.9 2.1.9 3.2.3 1.9-.9 1.8-2.7 1.7-4.3-.2-3.3 0-6.1 4.6-5.3 1.3.2 2.2.6 2.3 2.1.4 5.2 3.2 4.5 6.6 2.5.9 2.4.6 4.4-.5 6.4-26.6 6.1-53.3 12.3-79.9 18.4-4 .9-8.2.9-12.1 2.6-1.2-.8-1-2-1-3.2.1-1.7-.2-3.2-2.4-2.8-1.8.3-4.1.8-3.2 3.4 1.6 4.5-1.9 3.9-4.2 4.7-2.4.8-4.3 1.3-4.1-2.4.1-1.2-.8-1.8-2-1.5-1.5.4-3.3.8-3 2.7.6 3.6-1.8 4-4.3 4.7-2.5.7-3.5 0-4.2-2.5-.5-1.7-4.6-.7-5.5 1.4-2.4 5.5-4.2 5.8-8.6 2.4-1.9-1.5-4.7-.6-5.4 2-.6 2.3-1.8 2.8-3.7 3.2-4.1.8-8.1 2-12.1 2.8-2.1.4-4.3 1.5-6.5-.6-1.1-1-3.7-.6-4.3 1.2-.6 2.1 1.6 1.4 2.7 1.6 1.5.3 2.1 1.1 1.4 2.4-.8 1.6-2.9 2.2-3.7 1-2.7-4-5.9-1.8-8.9-1.2-4.7.9-9.1 2.8-14 2.4-1.7-.1-4-.2-5.3 2-.8 1.5-2.6 1.3-4.1 1.5-14.4 2.1-28.1 7.2-42.2 10.7-2.7.7-4.7 1.3-4.3 4.8.2 2.2-1.1 3.9-3.4 4.2-2.5.4-3.1-1.5-3.4-3.4-.3-1.8-1.1-3-2.9-2-1.6.8-4.9-.6-4.5 3.2.1.7.2 1.4.1 2-.4 2-1 4-3.4 4.3-2.4.3-3.4-1.2-3.8-3.1-.6-3.2-2.4-2.7-4.7-2.1-2.3.6-4.1 1-3.1 4.2.7 2.2 0 4.5-2.7 5-2.8.6-4-.9-4.1-3.6 0-2.6-1.3-3-3.6-2.4-6.9 1.8-13.8 3.5-20.8 5.1-1.7.4-2.6 1.4-2.5 3.1v3.5c-.1 2.3-1.2 3.9-3.5 4.2-2.8.3-3.1-1.9-3.5-3.9-.3-1.5.8-4.5-2.4-3.5-2.5.8-6.5-.3-6.6 4.4 0 2.5 1.1 5.5-1.9 7.2-1.1 0-2.1 0-3.2.1-2 .1-2.5-1.3-2.9-2.8-.4-1.7-.8-3.3-3.1-2.9-2 .4-3.2 1.5-3.5 3.6-.3 2.2.5 4.8-2.4 5.9-1.2.8-2.5 1.1-3.8 1-2.8.3-3-2.1-3.8-3.8-.7-1.4-1.3-2.8-3.3-2.4-1.7.3-2.3 1.6-2.6 3.2-.4 2.2.5 4.9-2.6 5.9-1.6.3-3.2.7-4.8 1.1-2.5 0-2.6-2.2-3.1-3.8-.5-1.7-.8-3.3-3.1-2.9-2.1.4-3.1 1.6-3.4 3.7-.3 2 .5 4.4-1.5 6-1.6 1.4-3.4 2.4-5.6 2-.5 0-.9-.3-1.3-.6-2.1-1.9-.7-5.7-2.8-7-1.8-1.1-4.6 1.6-7-.3-2.5 1.7-4.8 3.7-8.2 2-1.1-.5-2.9-.5-3.9 1-2.3 3.2-5.8 5.5-9.3 5.4-5.9-.2-10.8 2.1-16.1 3.7-2.8.3-4.7-1.3-6.3-3.3-2.3-2.6-5-3.3-8.5-2.8-10.8 1.6-21.8 1.6-32.2 5.6-2.9 1.1-6.2 1-9.4.4-1-.2-2.1-.5-2.2-1.6-.1-1.1.7-1.8 1.6-2.3 2.8-1.5 5.9-2.3 9-2.8 8-1.2 15.9-4.2 24-6.3z" class="stn53"/>
    <path fill="#6e7073" d="M850 1003c4.9-2 9.6-4.1 15.4-3.7 3.1.3 6.4-2.7 9.6-4.2 3.6-.6 4 1.2 5.1 4.5 2.3 6.4-1.1 6.8-5.5 8.2-22.9 6.9-46.3 11.8-69.3 18.1-7.8 2.1-15.6 4.2-23.3 6.5-7.7 2.3-15.6 4.3-23.6 5.9-3.2.6-6.6 1-9 3.8-1 1.1-2.4.9-3.7.7-5.1-.7-9.2 1.8-13.7 3.8-4 1.8-10.3-1.4-13.7 2.3-3.6 3.8-7.5 1.3-10.7 2.6-6.9 2.6-13.8 4-21.2 5-12.9 1.8-25.6 5.6-38.3 8.7-.8.2-6.2-.9-1.5 2.8.6.5-.1 1.3-.7 1.6-1.6.8-3.3 1.1-4.7-.1-1.2-1.2-2.2-2.5-4.1-2.2-.2-.4-.3-.9-.1-1.4 1.8-4.6.7-8-4.1-9.8.7-2.3 2.8-2.1 4.5-2.5 44.2-10.7 88.4-21.7 132.5-32.6 12.1-3 24.2-5.6 36.2-9.1 3.4-1 7-.6 10.4-1.2.5-.2.9-.5 1.4-.7 3.3-2.3 7.1-3.1 11.1-3 1.5 0 3-.2 4.4-.8 4.4-2.3 8.9-3.9 14-2.4.7-.1 1.8 0 2.6-.8z"/>
    <path fill="#5c5f63" d="M633 1056c1.9.6 5-1.2 5.7 1.4.7 3.2 1.6 6.9-1.6 9.6-3.4 1.2-7.6 1.2-8.7 6.2-.2 1.1-3.3 2.4-4.2.9-3.1-5.2-7.2-2.2-11-2-3 1.2-3.9-.3-3.8-3 0-1.8.4-4.1-2.2-4-2.7.1-2.8 2.5-2.4 4.5.7 3.8-1.4 5-4.6 5.2l-1.9.3c-3 .7-5.6 1-6.5-3-.4-1.8-1.7-3-3.7-2.4-2 .7-2.2 2.4-1.7 4.1 1.1 3.2-.9 3.7-3.2 4-14.7 2.6-29.3 5.8-44.1 7.7-3.6.4-7.3.1-10.8 1.5.1-4.5-1.5-8.7-2.1-13 1.9-2 4.6-1.8 7-2.2 30.9-4.5 61.7-10.1 92.4-16.1 2.2-.4 4.9-1.8 7.4.3z"/>
    <path fill="#918882" d="M583 1077.9c1.3-1.1 3.9-1.2 1.7-4.2-1.5-2.1 0-4.7 2.5-5.5 2.6-.8 5.5-.3 5.6 3 .1 4.1 2.6 3.9 5.3 3.9-2.6.9-5.3 1.2-5 5.3.2 1.9-1.7 3.4-4 3.6-2 .1-2.8-1.3-3.5-2.9-.6-1.3-.6-3.1-2.6-3.2z"/>
    <path fill="#938a83" d="M600 1074.9c1.9-1.2 4.9-1.4 3.2-5.2-.8-1.8-.8-4.3 1.7-5.6 1.3-.7 2.6-1.5 4.1-.4 2 1.5 2.3 3.4 1.4 5.7-1 2.6 1 2.6 2.7 2.8-1.1 1.2-.9 2.8-1.4 4.2-.7 1.9-2.3 2.8-4.2 3.2-1.8.4-2.9-.9-3.3-2.4-.5-2.7-2.5-2.1-4.2-2.3z"/>
    <path fill="#77797c" d="M887.2 992.1c2.7-.5 5.8-2 8-1.2 2.7 1 .3 5.1 2 7.4.4.5.7 1.1 1 1.7-2.7 3.2-6.9 2.5-11.2 4.4 2-4.7-.2-8.4.2-12.3z"/>
    <path fill="#7b7d7f" d="M903.8 998c.1-1.6.6-3.3.2-4.9-1.2-4.9 1.8-5.8 5.5-6.5 2.5-.5 3.4.4 3.4 2.6.1 2.2.1 4.3 2 5.8l.3.9c-3.6 1.5-7.2 3.4-11.4 2.1z"/>
    <path fill="#808284" d="M935.9 990c1.6-1.8 1.1-4 1.1-6.1 0-1.8-.2-3.4 2.2-4.2 4.8-1.7 5.8-1.4 6.8 3.7.2 1.2.7 2.2 1.8 2.7.1.3.4.8.4.9-3.8 2.3-7.7 4.2-12.3 3z"/>
    <path fill="#7c7e81" d="M919.8 994c1.5-1.6 1.4-3.7 1.1-5.6-.6-3.6 1.4-4.6 4.2-5.2 2.6-.6 4-.1 4.3 2.9.2 1.8.4 4 2.7 4.9-3.6 3.1-7.6 4.5-12.3 3z"/>
    <path d="M633 1056c-15.3 2.8-30.7 5.8-46 8.5-20.3 3.6-40.5 7.4-61 9.6-1.3-4.7-2.7-9.3-4-14-.3-4 3.2-3.6 5.2-3.8 8.7-1 17.2-2.9 25.9-4.2 21.1-3.1 41.8-7.8 62.7-12.1 27.8-5.8 55.6-11.8 83.1-19 2.7-.7 5.4-1.4 8.2-2 9.1-.7 17.7-4 26.5-6 18.2-4.1 36.3-8.6 54.4-13 10.6-2.6 21.1-5.5 31.6-8.4 2.2-.6 4.3-.5 6.4-.6-7 4.1-14.8 5.6-22.6 6.9-4.1.7-8 1.8-12.5 4.3 5.7 1.5 10.6 1.1 15-.8 10.2-4.4 21.3-2.5 31.8-5.2 3-.8 5.2 1.9 7 4.1 1.5 1.8 2.9 3.2 5.3 2.7-1.6 1.6-3.7.8-5.6.9-4.1.1-7.7 2-11.4 3.2-2.5-5-2.5 1.3-4 .9-4-.3-7.8.6-11.1 3-.7-.7-1.4-1.3-2.5-1.3.7.6 1.8.6 2.4 1.4-3.2 2.4-7.2.2-10.6 1.7-9.1 4-19 5.3-28.4 7.5-20.6 4.6-40.9 10.2-61.4 15-27.8 6.4-55.3 14.1-83.2 20.1-.4-.1-.8.3-1.2.6z" class="stn62"/>
    <path fill="#5b5e62" d="M489.9 1092.3c-9.1-.2-18.1 1.5-27.1 2.4-16.1 1.6-32.2 3.6-48.4 5.2-1.4.2-3.9 1.4-4.2-1.8 2.5-3.2 6.6-5.1 7.6-9.6.4-1.6 1.9-1.7 3.2-1.8 8.1-.7 16.1-2.2 24.2-2.7 12.6-.8 25.1-2.3 37.7-3.5 2.7-.3 4.9-1.1 4.3-4.5.9 5.4 1.8 10.8 2.7 16.3z"/>
    <path fill="#b6b8bb" d="M492.2 1078.8c-1-4.2-2-8.4-2.9-12.6-.7-3.1 1-4.7 3.7-5.6 6.2-2 12.6-3.1 19-4.2 2.9-.5 5.2.9 6.1 3.9 1.1 3.8 2.1 7.7 3.1 11.5.9 2.4 0 4.1-2.3 4.6-8.3 1.7-16.6 3.1-25 3.3-.7.1-1.3-.4-1.7-.9z"/>
    <path fill="#acafb2" d="M524 1088.1c.4 4.5.6 8.9 1.1 13.4.3 2.7-.7 3.9-3.4 4.3-7.8.9-15.5 2-23.2 3-2.2.3-3.4-.2-3.4-2.8-.1-5-.6-9.9-.9-14.9 1.6-1.7 3.7-2.2 5.9-2.3 5.6-.5 11.2-1.3 16.9-2 2.3-.4 4.9-.7 7 1.3z"/>
    <path fill="#5f6164" d="M524 1088.1c-10.1-.2-19.9 2.1-29.9 3-.6-4.1-1.3-8.2-1.9-12.2 8.5-1.1 17-2.1 25.4-3.2 2-.3 4-.8 3.6-3.6.9 5.2 1.8 10.6 2.8 16z"/>
    <path fill="#979a9e" d="M497.4 1125.8c-2.2.1-3.5-.3-3.4-2.4.1-1.8-.1-3.8 2.5-4.2 8.4-1 16.7-2.1 25.1-3.1 2.2-.3 2.6.8 1.7 2.6-.6 1.3-1.7 2.1-3 2.5-7.7 2.4-15.6 3.3-22.9 4.6z"/>
    <path d="M1043.9 953.9c1.6 0 3.1.1 2.9 2.2-.2 2.3-1.6 3.6-3.8 3.7-2 .1-3-1.2-2.9-3.1.1-2.3 1.8-2.7 3.8-2.8zm14.5-3.8c1.5-.1 2.5.3 2.5 1.8 0 2.3-1.4 3.7-3.6 3.9-1.5.1-2.3-1.1-2.4-2.6 0-2.4 2-2.6 3.5-3.1z" class="stn53"/>
    <path fill="#65686d" d="M1484 830.5c-.1 5-.1 9.9-1 14.9s-3.2 7.8-8 8.8c-2.8.6-6 3.5-8.4 1.3-2.5-2.2.1-5.6.6-8.5 2.2-13.6-.2-26.7-4-39.7-.8-2.7-2.8-5.9-.5-8 3.2-2.8 7.7-3.9 12-4 2.7-.1 3.4 2.9 4.2 5 3.6 9.8 5.7 19.8 5.1 30.2z"/>
    <path d="M1237.9 898.9c.5 3.4-.8 5.8-3.6 5.7-3.7-.1-2.3-3.9-2.7-5.9-.7-3.3 2.7-2.7 4.4-3 3.1-.6 1.5 2.3 1.9 3.2zm13.1-4.2c.2 3.1-.3 5.8-3.4 6-2.8.2-2.5-2.4-2.7-4.4-.4-3.3 1.5-4.6 4.3-4.9 3.1-.1 1 2.6 1.8 3.3z" class="stn35"/>
    <path d="M1197.7 911.9c-.2 1.6-1.5 3.4-3.5 3.6-1.7.2-2.1-1.9-2.1-3.3-.1-2.5 1.8-2.9 3.7-3.1 1.5-.2 2 .8 1.9 2.8z" class="stn33"/>
    <path d="M784.9 1026.1c.4 5.2-3.9 4.6-6.2 5-2.2.4-2.4-2.9-2.5-4.5 0-4.2 4.1-3 6.3-3.6 2.5-.7 2.2 2.1 2.4 3.1z" class="stn28"/>
    <path fill="#b6b6b6" d="M850.7 1005c2.2-.3 3.2.5 3.5 2.9.4 3.9-2.1 4.1-4.8 4.5-2.6.4-3.1-1.2-3.3-3.1-.5-3.7 2.1-4 4.6-4.3z"/>
    <path d="M797.4 1026c-2.6 0-3.5-1.5-3.3-3.5.3-3.8 3.9-3 6.1-3.8 2.2-.9 2.5 1.3 2.5 2.6 0 3.5-3 3.9-5.3 4.7z" class="stn28"/>
    <path d="M870.9 1003c.3 4.5-3.1 4.4-5.4 4.7-2.3.3-2.4-1.9-2.3-3.5.1-4 3.6-3.4 5.9-3.9 2.3-.5 1.5 1.9 1.8 2.7z" class="stn53"/>
    <path fill="#bababa" d="M831.3 1016.5c-2.5-.4-2.3-2.3-2.3-3.8.1-3.6 3.2-3.1 5.4-3.6 2.3-.5 2.8 1.2 2.6 3-.5 3.6-3.7 3.2-5.7 4.4z"/>
    <path fill="#babab9" d="M819.9 1016.5c-.6 2.5-2.2 4-4.9 4.5-2.6.5-3.2-1.3-3.4-3.1-.3-3.8 3.1-3.1 5.2-3.8 1.5-.5 2.8.3 3.1 2.4z"/>
    <path fill="#b9b8b8" d="M747 1038c-2 0-4.1.3-4-2.5.1-3.8 3.7-3.2 5.8-4.1 2.1-.9 2.2 1.2 2.3 2.7.2 3.2-1.6 4-4.1 3.9z"/>
    <path d="M711.9 1046.8c-2.4.3-2.8-1-2.9-2.7-.3-4.5 3.7-2.7 5.7-3.8 1.5-.9 2.4.5 2.4 2 .1 3.8-3.4 3.4-5.2 4.5zm22.6-7.9c-.9 3.3-4 2.7-6.2 3.4-1.8.6-2.2-.9-2.2-2.3 0-4.5 4-2.9 6.2-3.9 2.5-1.3 1.2 1.7 2.2 2.8z" class="stn28"/>
    <path d="M829 1007.9c-.1-1.5.1-3 1.7-3.8 1.1-.5 2.3-1.6 3.5-.2 1.4 1.7-.9 2-1.2 3.2-1.1 1.1-2.5 1-4 .8z" class="stn53"/>
    <path d="M659.8 1054.9c-1.5.1-3-.1-2.5-1.3.8-2 3.3-1.3 5-2.1 1-.4 1.8.4 1.5 1.2-.7 2.1-3.1 1.3-4 2.2z" class="stn62"/>
    <path d="M817.9 1011c-.3 0-.7.1-1 0-1.5-.3-3.4.9-4.4-1-.5-.8.5-1.5 1.3-1.7 2.3-.6 3.9 0 4.1 2.7z" class="stn53"/>
  </g>
</svg>
